<svg width="892" height="128" viewBox="0 0 892 128" fill="none" xmlns="http://www.w3.org/2000/svg">
<rect x="654" y="9" width="234" height="119" rx="25" fill="white"/>
<path d="M14.28 121C13.0333 121 12.0133 120.603 11.22 119.81C10.4267 119.017 10.03 117.997 10.03 116.75V36.85C10.03 35.6033 10.4267 34.5833 11.22 33.79C12.0133 32.9967 13.0333 32.6 14.28 32.6H32.81C34.0567 32.6 35.0767 32.9967 35.87 33.79C36.6633 34.5833 37.06 35.6033 37.06 36.85V42.63C39.6667 39.23 43.1233 36.4533 47.43 34.3C51.85 32.0333 56.78 30.9 62.22 30.9C74.6867 30.9 83.3 35.7733 88.06 45.52C90.78 41.2133 94.5767 37.7 99.45 34.98C104.323 32.26 109.537 30.9 115.09 30.9C124.383 30.9 131.92 34.0733 137.7 40.42C143.593 46.6533 146.54 56.0033 146.54 68.47V116.75C146.54 117.883 146.143 118.903 145.35 119.81C144.557 120.603 143.537 121 142.29 121H122.57C121.323 121 120.247 120.603 119.34 119.81C118.547 119.017 118.15 117.997 118.15 116.75V69.66C118.15 63.9933 116.96 59.9133 114.58 57.42C112.313 54.9267 109.197 53.68 105.23 53.68C101.603 53.68 98.6 54.9833 96.22 57.59C93.84 60.0833 92.65 64.1067 92.65 69.66V116.75C92.65 117.883 92.2533 118.903 91.46 119.81C90.6667 120.603 89.6467 121 88.4 121H68.68C67.4333 121 66.4133 120.603 65.62 119.81C64.8267 119.017 64.43 117.997 64.43 116.75V69.66C64.43 64.1067 63.1833 60.0833 60.69 57.59C58.31 54.9833 55.25 53.68 51.51 53.68C47.8833 53.68 44.8233 54.9833 42.33 57.59C39.95 60.0833 38.76 64.05 38.76 69.49V116.75C38.76 117.883 38.3633 118.903 37.57 119.81C36.7767 120.603 35.7567 121 34.51 121H14.28ZM206.553 122.7C192.953 122.7 182.243 119.017 174.423 111.65C166.603 104.283 162.523 93.5733 162.183 79.52V73.57C162.636 60.1967 166.773 49.77 174.593 42.29C182.526 34.6967 193.123 30.9 206.383 30.9C216.016 30.9 224.119 32.8833 230.693 36.85C237.379 40.7033 242.366 46.03 245.653 52.83C249.053 59.63 250.753 67.45 250.753 76.29V80.37C250.753 81.5033 250.356 82.5233 249.563 83.43C248.769 84.2233 247.749 84.62 246.503 84.62H192.103V85.81C192.329 91.1367 193.633 95.4433 196.013 98.73C198.393 102.017 201.849 103.66 206.383 103.66C209.216 103.66 211.539 103.093 213.353 101.96C215.166 100.713 216.809 99.24 218.283 97.54C219.303 96.2933 220.096 95.5567 220.663 95.33C221.343 94.99 222.363 94.82 223.723 94.82H244.803C245.823 94.82 246.673 95.16 247.353 95.84C248.146 96.4067 248.543 97.2 248.543 98.22C248.543 101.167 246.843 104.567 243.443 108.42C240.156 112.273 235.339 115.617 228.993 118.45C222.646 121.283 215.166 122.7 206.553 122.7ZM220.833 67.79V67.45C220.833 61.8967 219.529 57.5333 216.923 54.36C214.429 51.0733 210.916 49.43 206.383 49.43C201.963 49.43 198.449 51.0733 195.843 54.36C193.349 57.5333 192.103 61.8967 192.103 67.45V67.79H220.833ZM270.94 121C269.693 121 268.673 120.603 267.88 119.81C267.087 119.017 266.69 117.997 266.69 116.75V36.85C266.69 35.6033 267.087 34.5833 267.88 33.79C268.673 32.9967 269.693 32.6 270.94 32.6H289.47C290.717 32.6 291.737 32.9967 292.53 33.79C293.323 34.5833 293.72 35.6033 293.72 36.85V42.63C296.327 39.23 299.783 36.4533 304.09 34.3C308.51 32.0333 313.44 30.9 318.88 30.9C331.347 30.9 339.96 35.7733 344.72 45.52C347.44 41.2133 351.237 37.7 356.11 34.98C360.983 32.26 366.197 30.9 371.75 30.9C381.043 30.9 388.58 34.0733 394.36 40.42C400.253 46.6533 403.2 56.0033 403.2 68.47V116.75C403.2 117.883 402.803 118.903 402.01 119.81C401.217 120.603 400.197 121 398.95 121H379.23C377.983 121 376.907 120.603 376 119.81C375.207 119.017 374.81 117.997 374.81 116.75V69.66C374.81 63.9933 373.62 59.9133 371.24 57.42C368.973 54.9267 365.857 53.68 361.89 53.68C358.263 53.68 355.26 54.9833 352.88 57.59C350.5 60.0833 349.31 64.1067 349.31 69.66V116.75C349.31 117.883 348.913 118.903 348.12 119.81C347.327 120.603 346.307 121 345.06 121H325.34C324.093 121 323.073 120.603 322.28 119.81C321.487 119.017 321.09 117.997 321.09 116.75V69.66C321.09 64.1067 319.843 60.0833 317.35 57.59C314.97 54.9833 311.91 53.68 308.17 53.68C304.543 53.68 301.483 54.9833 298.99 57.59C296.61 60.0833 295.42 64.05 295.42 69.49V116.75C295.42 117.883 295.023 118.903 294.23 119.81C293.437 120.603 292.417 121 291.17 121H270.94ZM476.473 122.7C465.139 122.7 456.356 118.903 450.123 111.31V116.75C450.123 117.883 449.726 118.903 448.933 119.81C448.139 120.603 447.119 121 445.873 121H426.663C425.529 121 424.509 120.603 423.603 119.81C422.809 118.903 422.413 117.883 422.413 116.75V4.54999C422.413 3.30333 422.809 2.28333 423.603 1.49C424.509 0.696662 425.529 0.299994 426.663 0.299994H447.403C448.649 0.299994 449.669 0.696662 450.463 1.49C451.256 2.28333 451.653 3.30333 451.653 4.54999V40.93C457.999 34.2433 466.273 30.9 476.473 30.9C487.466 30.9 496.136 34.47 502.483 41.61C508.829 48.75 512.229 58.44 512.683 70.68C512.796 72.1533 512.853 74.1933 512.853 76.8C512.853 79.2933 512.796 81.2767 512.683 82.75C512.116 95.4433 508.716 105.303 502.483 112.33C496.249 119.243 487.579 122.7 476.473 122.7ZM467.293 99.92C472.619 99.92 476.416 98.3333 478.683 95.16C481.063 91.9867 482.423 87.6233 482.763 82.07C482.989 79.8033 483.103 78.0467 483.103 76.8C483.103 75.5533 482.989 73.7967 482.763 71.53C482.423 65.9767 481.063 61.6133 478.683 58.44C476.416 55.2667 472.619 53.68 467.293 53.68C462.306 53.68 458.509 55.21 455.903 58.27C453.296 61.33 451.879 65.1833 451.653 69.83L451.483 76.12L451.653 82.58C451.993 87.68 453.353 91.8733 455.733 95.16C458.226 98.3333 462.079 99.92 467.293 99.92ZM533.909 121C532.662 121 531.642 120.603 530.849 119.81C530.056 119.017 529.659 117.997 529.659 116.75V36.85C529.659 35.6033 530.056 34.5833 530.849 33.79C531.642 32.9967 532.662 32.6 533.909 32.6H553.459C554.706 32.6 555.726 33.0533 556.519 33.96C557.426 34.7533 557.879 35.7167 557.879 36.85V43.65C564.112 36.2833 572.499 32.6 583.039 32.6H590.519C591.766 32.6 592.786 32.9967 593.579 33.79C594.372 34.5833 594.769 35.6033 594.769 36.85V54.36C594.769 55.4933 594.372 56.5133 593.579 57.42C592.786 58.2133 591.766 58.61 590.519 58.61H574.029C569.382 58.61 565.756 59.9133 563.149 62.52C560.656 65.0133 559.409 68.5833 559.409 73.23V116.75C559.409 117.997 558.956 119.017 558.049 119.81C557.256 120.603 556.236 121 554.989 121H533.909ZM601.291 121C600.158 121 599.138 120.603 598.231 119.81C597.438 118.903 597.041 117.883 597.041 116.75V95.16C597.041 93.9133 597.438 92.8933 598.231 92.1C599.138 91.3067 600.158 90.91 601.291 90.91H622.881C624.128 90.91 625.148 91.3067 625.941 92.1C626.735 92.8933 627.131 93.9133 627.131 95.16V116.75C627.131 117.883 626.735 118.903 625.941 119.81C625.148 120.603 624.128 121 622.881 121H601.291Z" fill="white"/>
<path d="M702.33 97.85C695.927 97.85 690.742 96.15 686.775 92.75C682.808 89.2933 680.683 84.505 680.4 78.385L680.315 74.985L680.4 71.5C680.627 65.38 682.723 60.5917 686.69 57.135C690.713 53.6783 695.927 51.95 702.33 51.95C707.147 51.95 711.198 52.8283 714.485 54.585C717.828 56.285 720.293 58.3533 721.88 60.79C723.523 63.17 724.402 65.3517 724.515 67.335C724.572 67.9017 724.373 68.4117 723.92 68.865C723.523 69.2617 723.013 69.46 722.39 69.46H711.595C710.972 69.46 710.49 69.3183 710.15 69.035C709.81 68.7517 709.498 68.3267 709.215 67.76C708.535 66.0033 707.657 64.7567 706.58 64.02C705.56 63.2833 704.228 62.915 702.585 62.915C697.938 62.915 695.53 65.9183 695.36 71.925L695.275 75.155L695.36 77.96C695.473 81.02 696.125 83.2867 697.315 84.76C698.562 86.1767 700.318 86.885 702.585 86.885C704.342 86.885 705.73 86.5167 706.75 85.78C707.77 85.0433 708.592 83.7967 709.215 82.04C709.498 81.4733 709.81 81.0483 710.15 80.765C710.49 80.4817 710.972 80.34 711.595 80.34H722.39C722.957 80.34 723.438 80.5383 723.835 80.935C724.288 81.275 724.515 81.7283 724.515 82.295C724.515 84.1083 723.722 86.2333 722.135 88.67C720.605 91.1067 718.168 93.26 714.825 95.13C711.482 96.9433 707.317 97.85 702.33 97.85ZM734.277 97C733.71 97 733.2 96.8017 732.747 96.405C732.35 95.9517 732.152 95.4417 732.152 94.875V38.775C732.152 38.1517 732.35 37.6417 732.747 37.245C733.2 36.8483 733.71 36.65 734.277 36.65H744.307C744.93 36.65 745.44 36.8483 745.837 37.245C746.233 37.6417 746.432 38.1517 746.432 38.775V94.875C746.432 95.4983 746.233 96.0083 745.837 96.405C745.44 96.8017 744.93 97 744.307 97H734.277ZM772.708 97.85C767.721 97.85 763.698 96.1783 760.638 92.835C757.578 89.435 756.048 84.7033 756.048 78.64V54.925C756.048 54.3017 756.246 53.7917 756.643 53.395C757.04 52.9983 757.55 52.8 758.173 52.8H768.798C769.421 52.8 769.931 52.9983 770.328 53.395C770.781 53.7917 771.008 54.3017 771.008 54.925V78.13C771.008 83.6833 773.473 86.46 778.403 86.46C780.783 86.46 782.653 85.7233 784.013 84.25C785.373 82.7767 786.053 80.7367 786.053 78.13V54.925C786.053 54.3017 786.251 53.7917 786.648 53.395C787.101 52.9983 787.611 52.8 788.178 52.8H798.803C799.426 52.8 799.936 52.9983 800.333 53.395C800.73 53.7917 800.928 54.3017 800.928 54.925V94.875C800.928 95.4417 800.73 95.9517 800.333 96.405C799.936 96.8017 799.426 97 798.803 97H788.943C788.376 97 787.866 96.8017 787.413 96.405C787.016 95.9517 786.818 95.4417 786.818 94.875V91.645C783.871 95.7817 779.168 97.85 772.708 97.85ZM837.956 97.85C832.289 97.85 827.898 95.9517 824.781 92.155V94.875C824.781 95.4417 824.583 95.9517 824.186 96.405C823.789 96.8017 823.279 97 822.656 97H813.051C812.484 97 811.974 96.8017 811.521 96.405C811.124 95.9517 810.926 95.4417 810.926 94.875V38.775C810.926 38.1517 811.124 37.6417 811.521 37.245C811.974 36.8483 812.484 36.65 813.051 36.65H823.421C824.044 36.65 824.554 36.8483 824.951 37.245C825.348 37.6417 825.546 38.1517 825.546 38.775V56.965C828.719 53.6217 832.856 51.95 837.956 51.95C843.453 51.95 847.788 53.735 850.961 57.305C854.134 60.875 855.834 65.72 856.061 71.84C856.118 72.5767 856.146 73.5967 856.146 74.9C856.146 76.1467 856.118 77.1383 856.061 77.875C855.778 84.2217 854.078 89.1517 850.961 92.665C847.844 96.1217 843.509 97.85 837.956 97.85ZM833.366 86.46C836.029 86.46 837.928 85.6667 839.061 84.08C840.251 82.4933 840.931 80.3117 841.101 77.535C841.214 76.4017 841.271 75.5233 841.271 74.9C841.271 74.2767 841.214 73.3983 841.101 72.265C840.931 69.4883 840.251 67.3067 839.061 65.72C837.928 64.1333 836.029 63.34 833.366 63.34C830.873 63.34 828.974 64.105 827.671 65.635C826.368 67.165 825.659 69.0917 825.546 71.415L825.461 74.56L825.546 77.79C825.716 80.34 826.396 82.4367 827.586 84.08C828.833 85.6667 830.759 86.46 833.366 86.46Z" fill="#1C1B21"/>
</svg>
